<?xml version="1.0" standalone="no"?>
<!DOCTYPE svg PUBLIC "-//W3C//DTD SVG 20010904//EN"
 "http://www.w3.org/TR/2001/REC-SVG-20010904/DTD/svg10.dtd">
<svg version="1.0" xmlns="http://www.w3.org/2000/svg"
 width="3027.000000pt" height="1820.000000pt" viewBox="0 0 3027.000000 1820.000000"
 preserveAspectRatio="xMidYMid meet">
<metadata>
Created by potrace 1.15, written by Peter Selinger 2001-2017
</metadata>
<g transform="translate(0.000000,1820.000000) scale(0.100000,-0.100000)"
fill="#000000" stroke="none">
<path d="M16515 18181 c-252 -92 -561 -365 -773 -684 -97 -145 -158 -255 -281
-509 -377 -773 -541 -1505 -541 -2412 0 -472 34 -865 140 -1636 21 -157 40
-299 42 -317 3 -30 -9 -41 -252 -244 -315 -262 -542 -457 -748 -642 -205 -184
-688 -667 -832 -832 -680 -779 -1069 -1518 -1214 -2305 -47 -258 -59 -417 -53
-725 3 -154 9 -292 13 -308 l6 -27 -1001 0 c-661 0 -1001 -3 -1001 -10 0 -5
-13 -10 -30 -10 -20 0 -30 -5 -30 -15 0 -9 -9 -15 -25 -15 -14 0 -25 -4 -25
-10 0 -5 -12 -10 -27 -10 -14 0 -23 -3 -19 -7 7 -8 -59 -43 -81 -43 -7 0 -13
-4 -13 -10 0 -5 -11 -10 -24 -10 -13 0 -26 -7 -30 -15 -3 -8 -15 -15 -26 -15
-11 0 -20 -4 -20 -10 0 -5 -11 -10 -25 -10 -16 0 -25 -6 -25 -15 0 -9 -9 -15
-25 -15 -14 0 -25 -4 -25 -10 0 -5 -12 -10 -27 -10 -14 0 -23 -3 -19 -7 7 -8
-59 -43 -81 -43 -7 0 -13 -4 -13 -10 0 -5 -11 -10 -24 -10 -13 0 -26 -7 -30
-15 -3 -8 -15 -15 -26 -15 -11 0 -20 -4 -20 -10 0 -5 -7 -10 -15 -10 -12 0
-15 18 -15 104 0 59 -4 108 -10 111 -6 4 -10 54 -10 116 0 62 -4 108 -9 105
-14 -9 -21 32 -21 127 0 51 -4 87 -10 87 -6 0 -10 45 -10 116 0 64 -4 113 -9
110 -14 -9 -21 32 -21 127 0 51 -4 87 -10 87 -6 0 -10 43 -10 109 0 71 -4 111
-11 113 -7 2 -11 33 -10 85 1 50 -5 99 -14 125 -9 26 -15 80 -15 136 0 54 -4
92 -10 92 -6 0 -10 45 -10 116 0 65 -4 113 -9 110 -15 -10 -21 22 -21 114 0
49 -4 92 -10 95 -6 4 -10 54 -10 116 0 62 -4 108 -9 105 -14 -9 -21 32 -21
126 0 48 -4 90 -10 93 -6 3 -10 51 -10 110 0 74 -4 105 -12 107 -9 3 -14 37
-16 109 -2 57 -8 108 -13 114 -5 5 -9 55 -9 112 0 62 -4 103 -10 103 -6 0 -10
45 -10 116 0 65 -4 113 -9 110 -15 -10 -21 22 -21 120 0 56 -4 94 -10 94 -6 0
-10 42 -10 106 0 80 -4 109 -15 120 -11 12 -15 39 -15 109 0 52 -4 97 -10 100
-5 3 -10 42 -10 86 0 45 -4 78 -9 75 -10 -7 -21 17 -21 45 0 10 -4 19 -10 19
-5 0 -10 7 -10 15 0 8 -4 15 -9 15 -5 0 -13 9 -16 20 -3 11 -13 20 -21 20 -8
0 -14 5 -14 10 0 6 -9 10 -20 10 -11 0 -20 6 -20 14 0 18 -45 26 -151 26 -77
0 -92 -3 -106 -20 -10 -11 -24 -20 -31 -20 -17 0 -72 -59 -72 -77 0 -7 -7 -13
-16 -13 -12 0 -15 -7 -12 -25 4 -16 1 -25 -7 -25 -8 0 -15 -20 -18 -52 -5 -50
-10 -85 -23 -166 -3 -18 -9 -30 -15 -27 -5 4 -9 -18 -9 -54 0 -33 -5 -63 -10
-66 -5 -3 -10 -26 -10 -50 0 -55 -9 -82 -21 -63 -5 8 -9 -16 -9 -59 0 -42 -4
-73 -10 -73 -5 0 -10 -20 -10 -44 0 -51 -8 -78 -21 -70 -5 3 -9 -24 -9 -60 0
-36 -4 -66 -9 -66 -5 0 -11 -26 -14 -57 -4 -32 -9 -74 -12 -93 -3 -19 -8 -50
-11 -68 -3 -18 -9 -30 -15 -27 -5 4 -9 -18 -9 -54 0 -33 -4 -63 -10 -66 -5 -3
-10 -26 -10 -50 0 -50 -8 -77 -21 -69 -5 3 -9 -24 -9 -60 0 -37 -4 -66 -10
-66 -5 0 -10 -22 -10 -49 0 -31 -6 -55 -15 -65 -10 -9 -15 -34 -15 -70 0 -31
-4 -56 -9 -56 -5 0 -11 -26 -14 -57 -4 -32 -9 -74 -12 -93 -3 -19 -8 -50 -11
-68 -3 -18 -9 -30 -15 -27 -5 4 -9 -18 -9 -54 0 -33 -4 -63 -10 -66 -5 -3 -10
-26 -10 -50 0 -50 -8 -77 -21 -69 -5 3 -9 -24 -9 -60 0 -37 -4 -66 -10 -66 -5
0 -10 -19 -10 -42 0 -54 -10 -89 -21 -82 -5 3 -9 -24 -9 -60 0 -37 -4 -66 -10
-66 -5 0 -10 -21 -10 -48 0 -27 -7 -57 -16 -70 -8 -12 -15 -37 -14 -55 3 -53
1 -69 -10 -62 -6 4 -10 -16 -10 -54 0 -33 -4 -63 -10 -66 -6 -3 -10 -26 -10
-50 0 -50 -8 -77 -21 -69 -5 3 -9 -24 -9 -60 0 -37 -4 -66 -10 -66 -5 0 -10
-19 -10 -42 0 -59 -10 -94 -21 -76 -5 8 -9 -16 -9 -59 0 -42 -4 -73 -10 -73
-5 0 -10 -21 -10 -48 0 -26 -7 -57 -15 -69 -9 -13 -15 -40 -13 -68 1 -26 -3
-50 -9 -53 -6 -4 -13 -29 -16 -57 -6 -48 -12 -91 -23 -163 -3 -18 -9 -30 -15
-27 -5 4 -9 -18 -9 -54 0 -33 -4 -63 -10 -66 -5 -3 -10 -23 -10 -43 0 -53 -11
-87 -21 -70 -5 8 -9 -16 -9 -59 0 -42 -4 -73 -10 -73 -5 0 -10 -20 -10 -44 0
-51 -8 -78 -21 -70 -5 3 -9 -24 -9 -60 0 -36 -4 -66 -9 -66 -5 0 -11 -26 -14
-58 -4 -31 -9 -73 -12 -92 -3 -19 -8 -50 -11 -68 -3 -18 -9 -30 -15 -27 -5 4
-9 -18 -9 -54 0 -33 -5 -63 -10 -66 -6 -3 -10 -26 -10 -50 0 -50 -8 -77 -21
-69 -5 3 -9 -24 -9 -60 0 -37 -4 -66 -10 -66 -5 0 -10 -22 -10 -49 0 -31 -6
-55 -15 -65 -10 -9 -15 -34 -15 -70 0 -31 -4 -56 -9 -56 -5 0 -11 -26 -14 -57
-4 -32 -9 -74 -12 -93 -3 -19 -8 -50 -11 -68 -3 -18 -9 -30 -15 -27 -5 4 -9
-18 -9 -54 0 -33 -4 -63 -10 -66 -5 -3 -10 -26 -10 -50 0 -50 -8 -77 -21 -69
-5 3 -9 -24 -9 -60 0 -37 -4 -66 -10 -66 -5 0 -10 -22 -10 -49 0 -31 -6 -55
-15 -65 -10 -9 -15 -34 -15 -70 0 -31 -4 -56 -9 -56 -5 0 -11 -26 -14 -57 -4
-32 -9 -74 -12 -93 -3 -19 -8 -50 -11 -68 -3 -18 -9 -30 -14 -27 -4 3 -11 -21
-14 -52 -8 -94 -22 -176 -34 -203 -10 -24 -11 -24 -11 12 -1 20 -6 40 -11 43
-6 3 -10 21 -10 40 0 19 -6 35 -14 38 -8 3 -17 24 -20 46 -3 23 -9 59 -12 81
-4 25 -11 40 -20 40 -9 0 -14 12 -14 35 0 19 -4 35 -10 35 -5 0 -10 18 -10 40
0 22 -4 40 -10 40 -5 0 -10 20 -10 45 0 33 -4 45 -15 45 -10 0 -15 10 -15 34
0 19 -4 38 -10 41 -5 3 -10 24 -10 46 0 22 -4 38 -9 35 -11 -7 -21 18 -21 54
0 16 -4 32 -10 35 -5 3 -10 21 -10 40 0 18 -4 35 -10 37 -11 3 -40 107 -40
143 0 14 -4 25 -10 25 -5 0 -10 16 -10 35 0 24 -5 35 -15 35 -11 0 -15 11 -15
40 0 22 -4 40 -10 40 -5 0 -10 20 -10 45 0 33 -4 45 -15 45 -10 0 -15 10 -15
34 0 19 -4 38 -10 41 -5 3 -10 24 -10 46 0 22 -4 38 -9 35 -11 -7 -21 18 -21
54 0 16 -4 32 -10 35 -5 3 -10 22 -10 41 0 19 -4 34 -10 34 -5 0 -10 16 -10
36 0 19 -7 42 -15 50 -8 9 -15 31 -15 50 0 19 -4 34 -10 34 -5 0 -10 15 -10
34 0 20 -6 36 -14 39 -8 3 -17 24 -20 46 -3 23 -9 59 -12 81 -4 25 -11 40 -20
40 -9 0 -14 12 -14 34 0 19 -4 38 -10 41 -5 3 -10 21 -10 40 0 18 -5 35 -12
37 -6 2 -11 21 -10 45 1 28 -3 43 -13 47 -9 3 -15 19 -15 41 0 19 -4 35 -10
35 -5 0 -10 18 -10 41 0 22 -4 38 -9 35 -10 -7 -21 27 -21 67 0 15 -4 27 -10
27 -5 0 -10 16 -10 35 0 19 -4 35 -9 35 -10 0 -29 68 -38 133 -3 20 -9 37 -14
37 -5 0 -9 15 -9 34 0 21 -6 36 -15 40 -9 3 -15 19 -15 41 0 19 -4 35 -10 35
-5 0 -10 20 -10 44 0 30 -5 46 -15 50 -9 3 -15 19 -15 41 0 19 -4 35 -10 35
-5 0 -10 21 -10 48 0 29 -3 42 -9 34 -10 -16 -21 16 -21 61 0 15 -4 27 -10 27
-5 0 -10 15 -10 34 0 19 -5 36 -12 38 -7 3 -11 22 -10 47 1 23 -2 40 -7 37
-11 -7 -21 18 -21 55 0 16 -4 29 -10 29 -5 0 -10 15 -10 34 0 21 -6 36 -15 40
-9 3 -15 18 -15 40 0 19 -4 38 -10 41 -5 3 -10 24 -10 46 0 28 -4 39 -15 39
-11 0 -15 11 -15 40 0 22 -4 40 -10 40 -5 0 -10 18 -10 41 0 24 -4 38 -10 34
-5 -3 -11 0 -11 7 -5 59 -11 83 -19 86 -6 2 -10 19 -10 38 0 19 -4 34 -10 34
-5 0 -10 18 -10 41 0 22 -4 38 -9 35 -5 -4 -12 7 -16 24 -4 16 -11 30 -16 30
-5 0 -8 3 -8 8 3 20 -2 32 -16 32 -8 0 -15 5 -15 11 0 16 -26 39 -44 39 -9 0
-16 4 -16 9 0 5 -11 12 -25 15 -14 4 -23 11 -20 16 4 6 -32 10 -94 10 -56 0
-101 -4 -101 -8 0 -5 -18 -16 -40 -26 -22 -10 -40 -22 -40 -27 0 -5 -7 -9 -15
-9 -8 0 -15 -6 -15 -13 0 -7 -11 -21 -25 -31 -14 -10 -25 -27 -25 -37 0 -11
-4 -19 -10 -19 -5 0 -10 -11 -10 -25 0 -16 -6 -25 -15 -25 -9 0 -15 -9 -15
-25 0 -14 -4 -25 -10 -25 -5 0 -10 -11 -10 -24 0 -13 -7 -27 -16 -30 -9 -4
-14 -13 -10 -21 3 -9 -1 -18 -9 -21 -8 -4 -15 -14 -15 -24 0 -11 -5 -22 -10
-25 -6 -3 -10 -14 -10 -25 0 -10 -7 -20 -15 -24 -8 -3 -15 -15 -15 -26 0 -11
-4 -20 -10 -20 -5 0 -10 -11 -10 -25 0 -16 -6 -25 -15 -25 -9 0 -15 -9 -15
-25 0 -14 -4 -25 -10 -25 -5 0 -10 -11 -10 -24 0 -13 -7 -27 -16 -30 -9 -4
-14 -13 -10 -21 3 -9 -1 -18 -9 -21 -8 -4 -15 -17 -15 -30 0 -13 -4 -24 -10
-24 -5 0 -10 -9 -10 -19 0 -10 -7 -21 -15 -25 -8 -3 -15 -15 -15 -26 0 -11 -4
-20 -10 -20 -5 0 -10 -11 -10 -25 0 -16 -6 -25 -15 -25 -9 0 -15 -9 -15 -25 0
-14 -4 -25 -10 -25 -5 0 -10 -11 -10 -25 0 -16 -6 -25 -16 -25 -12 0 -15 -6
-11 -21 3 -12 0 -22 -9 -26 -8 -3 -14 -16 -14 -29 0 -13 -4 -24 -10 -24 -5 0
-10 -9 -10 -19 0 -10 -7 -21 -15 -25 -8 -3 -15 -15 -15 -26 0 -11 -4 -20 -10
-20 -5 0 -10 -11 -10 -25 0 -16 -6 -25 -15 -25 -9 0 -15 -9 -15 -25 0 -14 -4
-25 -10 -25 -5 0 -10 -11 -10 -24 0 -13 -7 -27 -16 -30 -9 -4 -14 -13 -10 -21
3 -9 -1 -18 -9 -21 -8 -4 -15 -17 -15 -30 0 -13 -4 -24 -10 -24 -5 0 -10 -9
-10 -20 0 -11 -7 -23 -15 -26 -8 -4 -15 -15 -15 -25 0 -10 -4 -19 -10 -19 -5
0 -10 -11 -10 -24 0 -13 -7 -26 -15 -30 -8 -3 -15 -15 -15 -26 0 -11 -4 -20
-10 -20 -5 0 -10 -11 -10 -25 0 -16 -6 -25 -16 -25 -12 0 -15 -6 -11 -21 3
-12 0 -22 -9 -26 -8 -3 -14 -16 -14 -29 0 -13 -4 -24 -10 -24 -5 0 -10 -9 -10
-20 0 -11 -7 -23 -15 -26 -8 -4 -15 -14 -15 -24 0 -11 -5 -22 -10 -25 -6 -3
-10 -14 -10 -25 0 -10 -7 -20 -15 -24 -8 -3 -15 -15 -15 -26 0 -11 -4 -20 -10
-20 -5 0 -10 -11 -10 -24 0 -13 -7 -26 -15 -30 -8 -3 -15 -15 -15 -26 0 -11
-4 -20 -10 -20 -5 0 -10 -11 -10 -24 0 -13 -7 -26 -15 -30 -8 -3 -12 -12 -9
-21 4 -8 -1 -17 -10 -21 -9 -3 -16 -14 -16 -24 0 -11 -5 -22 -10 -25 -6 -3
-10 -14 -10 -25 0 -10 -7 -20 -15 -24 -8 -3 -15 -15 -15 -26 0 -11 -4 -20 -10
-20 -5 0 -10 -11 -10 -25 0 -16 -6 -25 -15 -25 -9 0 -15 -9 -15 -25 0 -14 -4
-25 -10 -25 -5 0 -10 -9 -10 -21 0 -11 -7 -27 -15 -36 -8 -8 -13 -19 -9 -24 3
-5 -2 -12 -10 -15 -9 -3 -16 -17 -16 -30 0 -13 -4 -24 -10 -24 -5 0 -10 -9
-10 -19 0 -10 -7 -21 -15 -25 -8 -3 -15 -15 -15 -26 0 -11 -4 -20 -10 -20 -5
0 -10 -11 -10 -24 0 -13 -7 -26 -15 -30 -8 -3 -15 -15 -15 -26 0 -11 -4 -20
-10 -20 -5 0 -10 -10 -10 -23 0 -33 -19 -49 -36 -32 -8 7 -14 16 -14 20 0 4
-6 13 -12 20 -30 33 -38 45 -38 55 0 5 -4 10 -10 10 -5 0 -10 7 -10 15 0 8
-11 25 -25 39 -14 14 -25 34 -25 46 0 11 -5 20 -11 20 -17 0 -39 27 -39 49 0
12 -6 21 -15 21 -8 0 -15 7 -15 15 0 8 -4 15 -10 15 -5 0 -10 11 -10 25 0 14
-5 25 -11 25 -17 0 -39 27 -39 47 0 10 -11 27 -25 37 -14 10 -25 27 -25 37 0
11 -4 19 -10 19 -5 0 -10 7 -10 15 0 8 -3 15 -8 15 -4 0 -16 16 -26 35 -11 19
-23 35 -28 35 -4 0 -8 7 -8 15 0 8 -11 25 -25 39 -14 14 -25 32 -25 41 0 9 -7
18 -15 21 -8 4 -15 12 -15 20 0 8 -4 14 -10 14 -5 0 -10 9 -10 20 0 11 -7 20
-15 20 -8 0 -15 7 -15 15 0 8 -4 15 -10 15 -5 0 -10 11 -10 25 0 14 -5 25 -11
25 -17 0 -39 27 -39 48 0 11 -7 23 -16 26 -8 3 -12 11 -9 16 4 6 1 9 -7 8 -7
-2 -14 7 -16 20 -2 12 -8 22 -13 22 -5 0 -9 7 -9 15 0 8 -7 15 -15 15 -9 0
-15 9 -15 23 0 12 -9 29 -20 37 -11 8 -20 20 -20 27 0 7 -6 13 -13 13 -7 0
-19 9 -27 20 -8 11 -20 20 -27 20 -7 0 -13 7 -13 15 0 9 -9 15 -25 15 -14 0
-25 5 -25 10 0 7 -232 10 -675 10 l-674 0 -3 -77 c-2 -43 -2 -169 0 -281 l3
-202 555 0 c431 0 558 -3 568 -12 6 -7 18 -27 25 -45 7 -17 19 -34 28 -37 8
-3 12 -10 9 -15 -3 -5 1 -14 9 -21 8 -7 15 -19 15 -26 0 -8 5 -14 10 -14 6 0
10 -7 10 -15 0 -8 5 -15 11 -15 5 0 8 -4 5 -8 -3 -5 4 -15 15 -22 10 -8 19
-20 19 -27 0 -7 11 -23 25 -37 14 -14 25 -32 25 -41 0 -9 7 -18 15 -21 8 -4
15 -12 15 -20 0 -8 5 -14 10 -14 6 0 10 -6 10 -13 0 -7 10 -23 23 -37 12 -14
29 -40 36 -57 7 -18 20 -33 27 -33 8 0 14 -10 14 -21 0 -12 11 -32 24 -44 14
-13 23 -25 20 -28 -2 -2 2 -10 11 -17 8 -7 15 -19 15 -26 0 -8 5 -14 10 -14 6
0 10 -7 10 -15 0 -8 5 -15 11 -15 5 0 8 -4 5 -8 -3 -5 4 -15 15 -22 10 -8 19
-20 19 -27 0 -7 11 -23 25 -37 14 -14 25 -32 25 -41 0 -9 7 -18 15 -21 8 -4
15 -12 15 -20 0 -8 5 -14 10 -14 6 0 10 -7 10 -15 0 -8 12 -26 26 -40 14 -14
26 -34 27 -45 1 -10 11 -24 24 -31 13 -7 23 -17 23 -24 0 -20 25 -65 36 -65 5
0 16 -16 24 -35 8 -19 17 -35 22 -35 4 0 8 -7 8 -15 0 -8 5 -15 12 -15 6 0 8
-3 5 -6 -4 -4 2 -14 12 -23 10 -9 21 -26 25 -38 4 -13 12 -23 17 -23 5 0 9 -7
9 -15 0 -8 5 -15 10 -15 6 0 10 -7 10 -15 0 -9 7 -18 15 -21 8 -4 15 -11 15
-18 0 -6 9 -18 20 -26 11 -8 20 -18 20 -23 0 -12 27 -37 39 -37 6 0 11 -7 11
-15 0 -8 9 -15 20 -15 11 0 20 -4 20 -10 0 -5 13 -10 29 -10 17 0 33 -4 36
-10 8 -13 92 -13 100 0 3 6 22 10 41 10 19 0 34 5 34 10 0 6 9 10 20 10 11 0
20 7 20 15 0 8 5 15 10 15 14 0 60 46 60 60 0 5 4 10 10 10 5 0 12 11 16 25 3
14 10 25 15 25 5 0 9 11 9 25 0 14 5 25 10 25 6 0 10 9 10 20 0 11 7 23 15 26
8 4 15 17 15 30 0 13 5 24 10 24 6 0 10 9 10 20 0 11 7 23 15 26 8 4 15 15 15
25 0 10 5 19 10 19 6 0 10 11 10 25 0 14 4 25 10 25 5 0 12 11 16 25 3 14 10
25 15 25 5 0 9 11 9 25 0 14 5 25 10 25 6 0 10 9 10 20 0 11 7 23 15 26 8 4
15 17 15 30 0 13 5 24 10 24 6 0 10 9 10 20 0 11 7 23 15 26 8 4 15 15 15 25
0 10 5 19 10 19 6 0 10 11 10 25 0 14 4 25 10 25 5 0 12 11 16 25 3 14 10 25
15 25 5 0 9 11 9 25 0 14 5 25 10 25 6 0 10 9 10 20 0 11 7 23 15 26 8 4 15
17 15 30 0 13 5 24 10 24 6 0 10 9 10 20 0 11 7 23 15 26 8 4 15 17 15 30 0
13 5 24 10 24 6 0 10 9 10 19 0 10 7 21 15 25 8 3 15 15 15 26 0 11 5 20 10
20 6 0 10 9 10 21 0 11 7 27 15 36 8 8 13 19 9 24 -3 5 2 12 10 15 9 3 16 17
16 30 0 13 5 24 10 24 6 0 10 9 10 20 0 11 7 23 15 26 8 4 15 17 15 30 0 13 5
24 10 24 6 0 10 9 10 19 0 10 7 21 15 25 8 3 15 15 15 26 0 11 5 20 10 20 6 0
10 11 10 25 0 14 4 25 10 25 5 0 12 11 16 25 3 14 10 25 15 25 5 0 9 11 9 25
0 14 5 25 10 25 6 0 10 9 10 20 0 11 7 23 15 26 8 4 15 17 15 30 0 13 5 24 10
24 6 0 10 9 10 19 0 10 7 21 15 25 8 3 15 15 15 26 0 11 5 20 10 20 6 0 10 11
10 25 0 14 4 25 10 25 5 0 12 11 16 25 3 14 10 25 15 25 5 0 9 11 9 25 0 14 5
25 10 25 6 0 10 9 10 20 0 11 7 23 15 26 8 4 15 17 15 30 0 13 5 24 10 24 6 0
10 9 10 20 0 11 7 23 15 26 8 4 15 15 15 25 0 10 5 19 10 19 6 0 10 11 10 25
0 14 4 25 10 25 5 0 12 11 16 25 3 14 10 25 15 25 5 0 9 11 9 25 0 14 5 25 10
25 6 0 10 9 10 20 0 11 7 23 15 26 8 4 15 17 15 30 0 13 5 24 10 24 6 0 10 9
10 20 0 11 7 23 15 26 8 4 15 15 15 25 0 10 5 19 10 19 6 0 10 11 10 25 0 14
4 25 9 25 5 0 12 8 14 18 3 9 5 0 6 -20 0 -20 6 -40 11 -43 6 -3 10 -20 10
-36 0 -17 7 -37 16 -46 8 -9 13 -22 10 -30 -3 -8 1 -27 9 -43 8 -16 15 -43 15
-60 0 -16 5 -30 10 -30 6 0 10 -18 10 -40 0 -26 4 -39 12 -37 11 2 21 -31 35
-126 3 -22 11 -37 19 -37 9 0 14 -12 14 -35 0 -19 5 -35 10 -35 6 0 10 -20 10
-44 0 -30 5 -46 15 -50 9 -3 15 -18 15 -40 0 -19 5 -38 10 -41 6 -3 10 -22 10
-41 0 -19 5 -34 10 -34 6 0 10 -21 10 -46 0 -25 4 -43 9 -40 11 7 21 -18 21
-55 0 -16 5 -29 10 -29 6 0 10 -15 10 -34 0 -19 5 -36 11 -38 10 -3 24 -52 36
-128 3 -19 12 -39 19 -43 8 -4 14 -21 14 -37 0 -16 5 -32 10 -35 6 -3 10 -26
10 -51 0 -24 5 -44 10 -44 6 0 10 -16 10 -35 0 -24 5 -35 15 -35 11 0 15 -11
15 -40 0 -22 5 -40 10 -40 6 0 10 -21 10 -46 0 -25 4 -43 9 -40 11 7 21 -18
21 -55 0 -16 5 -29 10 -29 6 0 10 -16 10 -35 0 -19 4 -35 9 -35 10 0 29 -68
38 -133 3 -20 9 -37 14 -37 5 0 9 -18 9 -40 0 -27 4 -39 13 -37 7 1 13 -13 15
-38 2 -22 8 -44 13 -50 5 -5 9 -24 9 -42 0 -23 5 -33 15 -33 11 0 15 -11 15
-40 0 -22 5 -40 10 -40 6 0 10 -21 10 -46 0 -25 4 -43 9 -40 11 7 21 -18 21
-55 0 -16 5 -29 10 -29 6 0 10 -16 10 -35 0 -19 5 -35 10 -35 6 0 10 -16 10
-36 0 -19 7 -42 15 -50 8 -9 15 -31 15 -50 0 -19 5 -34 10 -34 6 0 10 -18 10
-40 0 -27 4 -39 13 -37 7 1 13 -13 15 -38 2 -22 8 -44 13 -50 5 -5 9 -23 9
-41 0 -19 6 -34 15 -38 9 -3 15 -19 15 -41 0 -19 5 -35 10 -35 6 0 10 -18 10
-39 0 -22 5 -41 12 -43 7 -3 11 -18 10 -35 -1 -18 5 -38 13 -46 8 -9 15 -29
15 -46 0 -17 5 -31 10 -31 6 0 10 -21 10 -46 0 -25 4 -43 9 -40 11 7 21 -18
21 -55 0 -16 5 -29 10 -29 6 0 10 -16 10 -35 0 -19 4 -35 9 -35 10 0 29 -68
38 -132 3 -21 9 -38 14 -38 5 0 9 -13 9 -29 0 -16 7 -36 15 -45 8 -8 15 -31
15 -50 0 -20 5 -36 10 -36 6 0 10 -18 10 -40 0 -27 5 -43 15 -46 9 -4 15 -19
15 -40 0 -19 5 -34 10 -34 6 0 10 -21 10 -46 0 -25 4 -43 9 -40 11 7 21 -18
21 -55 0 -16 5 -29 10 -29 6 0 10 -15 10 -34 0 -19 5 -36 11 -38 6 -2 12 -17
13 -33 1 -17 7 -40 14 -52 7 -12 12 -35 12 -52 0 -17 5 -31 10 -31 6 0 10 -16
10 -35 0 -22 6 -38 15 -41 8 -4 15 -17 15 -30 0 -13 5 -24 10 -24 6 0 10 -9
10 -20 0 -11 7 -20 15 -20 8 0 15 -7 15 -15 0 -8 7 -15 15 -15 8 0 15 -4 15
-9 0 -5 9 -11 20 -13 12 -2 20 -7 20 -12 -3 -19 29 -26 120 -25 106 1 155 9
152 24 -2 6 6 11 18 13 11 2 20 8 20 13 0 5 7 9 15 9 8 0 14 4 12 9 -1 5 10
23 26 40 15 17 27 40 27 51 0 11 5 20 10 20 6 0 10 21 10 48 0 41 17 94 21 67
2 -9 6 19 27 174 4 36 13 66 20 69 8 2 12 26 12 63 0 32 4 59 9 59 5 0 12 26
15 58 13 139 23 195 35 187 5 -3 12 21 15 52 13 143 23 196 36 188 6 -4 10 20
10 59 0 37 4 66 10 66 6 0 10 22 10 49 0 56 8 84 21 75 5 -3 9 25 9 61 0 37 4
64 9 61 5 -4 12 20 15 51 13 140 23 196 35 188 5 -3 12 21 14 52 5 54 10 86
23 172 4 26 8 31 15 20 6 -9 9 9 9 53 0 37 4 70 10 73 5 3 10 26 10 50 0 50 8
77 21 69 5 -3 9 24 9 60 0 36 4 66 9 66 5 0 12 24 15 52 12 121 22 180 33 186
5 4 13 32 16 62 4 30 9 71 12 90 3 19 8 50 11 68 3 18 9 30 15 27 5 -4 9 18 9
54 0 33 4 63 10 66 6 3 10 28 10 55 0 30 6 54 15 64 10 9 15 34 15 70 0 31 4
56 9 56 5 0 11 26 14 58 4 31 9 73 12 92 3 19 8 50 11 68 3 18 9 30 15 27 5
-4 9 18 9 54 0 33 4 63 10 66 6 3 10 26 10 50 0 50 8 77 21 69 5 -3 9 24 9 60
0 37 4 66 10 66 6 0 10 22 10 49 0 31 6 55 15 65 10 9 15 34 15 70 0 31 5 56
10 56 6 0 10 21 10 48 0 26 7 60 16 77 8 16 14 43 13 60 -3 48 0 67 11 60 6
-4 10 16 10 54 0 33 5 63 10 66 6 3 10 26 10 50 0 50 8 77 21 69 5 -3 9 24 9
60 0 37 4 66 10 66 6 0 10 19 10 43 0 53 10 88 21 81 5 -3 9 24 9 60 0 37 4
66 10 66 6 0 10 21 10 48 0 26 7 57 15 69 9 13 15 40 13 69 -1 29 3 49 10 52
7 2 12 27 12 63 0 33 4 59 10 59 6 0 10 22 10 49 0 31 6 55 15 65 10 9 15 34
15 70 0 30 5 58 10 61 6 3 10 23 10 43 0 48 10 83 21 76 5 -3 9 24 9 60 0 37
4 66 10 66 6 0 10 20 10 44 0 51 8 78 21 70 6 -3 9 21 8 57 -1 40 2 64 9 67 7
2 12 27 12 63 0 33 4 59 10 59 6 0 10 24 11 53 l1 52 13 -60 c8 -33 14 -102
14 -152 1 -55 5 -93 11 -93 6 0 10 -46 10 -117 0 -76 4 -113 9 -104 17 26 20
-5 37 -332 3 -63 9 -105 15 -102 5 4 10 5 10 3 3 -8 20 -245 25 -341 3 -63 9
-105 15 -102 5 4 9 -41 9 -112 0 -68 4 -112 9 -105 13 22 21 -22 21 -125 0
-55 4 -93 10 -93 6 0 10 -44 10 -111 0 -61 4 -108 9 -105 14 9 21 -32 21 -126
0 -48 5 -90 10 -93 6 -4 10 -54 10 -116 0 -62 4 -108 9 -105 14 9 21 -32 21
-126 0 -48 5 -90 10 -93 6 -3 10 -50 10 -105 0 -55 4 -102 10 -105 6 -3 10
-20 10 -36 0 -17 6 -32 15 -35 8 -4 15 -10 15 -15 0 -13 76 -89 89 -89 6 0 11
-4 11 -10 0 -5 11 -10 25 -10 14 0 28 -7 31 -15 5 -12 24 -15 86 -15 44 0 77
4 74 9 -7 10 17 21 45 21 10 0 19 5 19 10 0 6 12 10 26 10 14 0 23 4 19 10 -3
6 3 10 13 10 11 0 25 7 32 15 7 8 21 15 31 15 11 0 19 5 19 10 0 6 14 10 30
10 18 0 29 5 28 12 -2 7 7 14 20 16 12 2 22 8 22 13 0 5 11 9 24 9 13 0 26 7
30 15 3 8 15 15 26 15 11 0 20 5 20 10 0 6 12 10 27 10 14 0 23 3 19 7 -7 8
59 43 81 43 7 0 13 5 13 10 0 6 14 10 30 10 18 0 29 5 28 12 -2 7 7 14 20 16
12 2 22 8 22 13 0 5 11 9 24 9 13 0 26 7 30 15 3 8 15 15 26 15 11 0 20 5 20
10 0 6 12 10 27 10 14 0 23 3 19 7 -7 8 59 43 81 43 7 0 13 5 13 10 0 6 14 10
30 10 18 0 29 5 28 12 -2 7 7 14 20 16 12 2 22 8 22 13 0 6 381 8 992 7 l991
-3 39 -130 c205 -680 573 -1264 1074 -1704 530 -466 1129 -777 1734 -900 322
-66 741 -73 1104 -20 76 11 141 18 143 15 5 -5 29 -176 117 -836 31 -228 69
-514 85 -635 54 -398 56 -424 56 -675 -1 -346 -37 -563 -134 -810 -74 -191
-178 -347 -323 -486 -181 -174 -399 -285 -682 -346 -138 -30 -511 -33 -651 -5
-285 58 -505 157 -637 289 -32 32 -58 63 -58 68 0 6 38 10 93 10 246 0 514 80
677 203 217 163 324 387 337 703 14 341 -82 613 -294 835 -133 139 -277 226
-459 276 -88 24 -116 27 -249 27 -165 -1 -236 -15 -378 -74 -163 -68 -354
-222 -460 -372 -401 -564 -251 -1448 333 -1963 336 -295 763 -445 1273 -445
744 0 1352 287 1689 795 179 269 273 568 300 954 16 228 2 416 -66 916 -61
442 -178 1305 -202 1485 -8 63 -17 129 -20 146 l-6 32 84 27 c1026 341 1721
1254 1755 2308 l6 177 714 0 c474 0 712 3 708 10 -4 6 8 10 29 10 27 0 34 3
30 15 -5 11 1 15 20 15 14 0 26 5 26 10 0 6 14 10 30 10 20 0 30 5 30 15 0 8
5 15 12 15 18 0 88 33 88 42 0 4 11 8 25 8 16 0 25 6 25 15 0 9 9 15 25 15 14
0 25 5 25 10 0 6 11 10 25 10 16 0 25 6 25 15 0 9 9 15 25 15 14 0 25 5 25 10
0 6 11 10 25 10 16 0 25 6 25 15 0 9 9 15 25 15 14 0 25 5 25 10 0 6 11 10 24
10 13 0 26 7 30 15 3 8 15 15 26 15 11 0 20 5 20 10 0 6 10 10 22 10 12 0 30
7 40 17 17 15 18 12 18 -96 0 -67 4 -110 9 -106 14 8 24 -77 19 -165 -4 -62
-2 -77 9 -73 10 4 13 -18 13 -106 0 -67 4 -111 10 -111 6 0 10 -47 10 -120 0
-91 3 -119 13 -118 9 2 14 -26 19 -102 16 -249 26 -336 42 -365 12 -22 16 -53
14 -118 -1 -56 3 -92 10 -99 8 -8 12 -51 12 -119 0 -77 4 -109 13 -112 9 -3
12 -36 12 -121 -1 -65 1 -113 3 -107 2 6 8 9 13 5 5 -3 9 -54 9 -115 0 -66 4
-109 10 -109 6 0 10 -47 10 -120 0 -91 3 -119 13 -117 9 1 13 -26 15 -105 1
-61 7 -108 12 -108 6 0 10 -47 10 -114 0 -83 3 -115 13 -118 8 -3 14 -42 20
-119 18 -283 24 -336 35 -362 7 -16 12 -72 12 -128 0 -74 3 -98 13 -96 9 1 13
-27 15 -111 2 -69 6 -110 12 -107 6 4 10 -40 10 -117 0 -71 4 -117 9 -110 15
24 21 -13 21 -119 0 -59 4 -99 10 -99 6 0 10 -37 10 -90 0 -67 3 -89 13 -87 7
1 13 -11 15 -31 2 -17 7 -32 13 -32 5 0 9 -6 9 -14 0 -8 7 -16 15 -20 8 -3 15
-15 15 -26 0 -13 7 -20 20 -20 11 0 20 -4 20 -10 0 -5 9 -10 20 -10 11 0 20
-6 20 -14 0 -17 52 -26 163 -26 75 0 90 3 104 20 10 11 25 20 35 20 10 0 18 5
18 10 0 6 7 10 16 10 8 0 13 4 10 9 -3 4 3 16 14 26 11 10 20 25 20 33 0 8 6
12 14 9 10 -4 13 3 12 26 -1 21 3 31 12 30 8 -2 12 14 12 56 0 33 5 63 10 66
6 3 10 28 10 55 0 30 6 54 15 64 10 9 15 34 15 69 0 36 5 59 15 67 10 8 15 31
15 67 0 34 4 52 10 48 10 -6 12 3 16 85 1 24 7 46 13 48 6 2 11 30 11 67 0 35
5 67 10 70 6 3 10 28 10 54 0 26 7 56 15 67 8 11 15 41 15 69 0 28 4 55 9 60
6 6 11 35 13 65 2 37 7 54 16 53 9 -2 12 16 12 67 0 40 4 70 10 70 6 0 10 22
10 49 0 56 8 84 21 75 5 -3 9 24 9 60 0 36 4 66 9 66 5 0 11 27 13 61 2 33 9
64 15 67 6 4 12 34 15 66 3 33 10 62 16 64 7 2 12 27 12 62 0 32 5 62 10 65 6
3 10 31 10 61 0 39 4 56 15 60 11 5 15 22 15 64 0 33 5 62 10 65 6 3 10 33 10
65 0 55 12 85 23 58 3 -7 6 20 6 60 1 39 5 72 11 72 5 0 10 28 12 63 2 44 7
61 16 59 9 -2 12 14 10 60 -2 41 2 63 10 66 8 2 12 25 12 62 0 39 5 62 15 70
10 8 15 30 15 62 0 31 6 55 15 64 10 10 15 35 15 69 0 30 5 57 10 60 6 3 10
31 10 61 0 39 4 56 15 60 11 5 15 22 15 70 0 36 4 64 10 64 6 0 10 27 10 61 0
50 3 60 15 55 12 -4 14 4 9 52 -5 46 -3 62 10 74 11 11 16 34 16 72 0 30 5 58
10 61 6 3 10 25 10 48 0 53 10 88 21 81 5 -3 9 22 9 55 0 33 5 63 10 66 6 3
10 27 11 53 0 42 15 102 19 77 4 -25 19 35 19 77 1 26 6 50 11 53 6 3 10 34
10 68 0 44 3 58 10 47 11 -17 12 -15 14 69 0 42 5 66 14 68 8 3 12 25 12 63 0
32 5 62 10 65 6 3 10 26 10 50 0 50 8 77 21 69 5 -3 9 26 9 65 0 39 4 71 10
71 5 0 10 26 12 58 2 39 7 56 16 54 9 -1 12 17 12 68 0 40 4 70 10 70 6 0 10
25 10 55 0 37 5 57 14 62 10 5 16 28 17 70 1 41 7 64 16 67 9 4 13 25 13 66 0
33 4 60 10 60 6 0 10 22 10 49 0 56 8 84 21 75 5 -3 9 23 9 58 0 35 4 68 9 74
6 5 11 34 13 64 2 37 7 54 16 52 8 -1 12 16 12 62 0 36 5 68 10 71 6 3 10 33
10 65 0 55 12 85 23 58 3 -7 6 20 6 60 1 39 5 72 11 72 5 0 10 28 12 63 2 43
7 61 16 59 8 -1 12 16 12 62 0 40 4 66 12 68 6 2 13 31 16 66 2 34 8 62 13 62
5 0 9 27 9 60 0 45 4 62 15 66 11 5 15 22 15 65 0 33 4 59 10 59 6 0 10 26 11
58 1 31 5 68 9 82 7 22 8 21 9 -12 1 -21 6 -38 11 -38 6 0 10 -15 10 -34 0
-18 7 -39 15 -46 8 -7 15 -28 15 -46 0 -19 5 -34 10 -34 6 0 10 -18 10 -39 0
-22 7 -46 15 -55 8 -8 15 -31 15 -50 0 -20 5 -36 10 -36 6 0 10 -13 10 -29 0
-16 7 -36 15 -45 8 -8 15 -32 15 -54 0 -26 5 -42 15 -46 9 -3 15 -19 15 -41 0
-19 5 -35 10 -35 6 0 10 -20 10 -45 0 -31 4 -44 13 -43 8 2 13 -12 15 -40 2
-23 7 -42 13 -42 5 0 9 -18 9 -39 0 -25 5 -41 15 -45 9 -3 15 -19 15 -41 0
-19 5 -35 10 -35 6 0 10 -20 10 -44 0 -26 6 -48 15 -56 8 -7 15 -28 15 -46 0
-19 5 -34 10 -34 6 0 10 -15 10 -32 0 -18 7 -42 15 -52 8 -11 15 -35 15 -53 0
-21 6 -36 15 -39 9 -4 15 -19 15 -40 0 -19 5 -34 10 -34 6 0 10 -20 10 -45 0
-31 4 -44 13 -43 8 2 13 -13 15 -45 2 -26 7 -45 13 -42 5 4 9 -13 9 -39 0 -32
4 -45 13 -44 8 2 12 -11 12 -39 0 -23 5 -41 10 -40 6 1 11 -16 13 -38 2 -22
10 -48 19 -57 8 -10 12 -25 9 -36 -4 -12 0 -26 9 -35 8 -9 15 -29 15 -46 0
-16 5 -33 10 -36 6 -3 10 -22 10 -41 0 -21 8 -42 20 -54 11 -11 20 -33 20 -50
0 -16 5 -30 10 -30 6 0 10 -17 10 -39 0 -23 6 -44 16 -51 10 -9 14 -26 12 -49
-2 -25 1 -35 10 -33 8 1 12 -12 12 -44 0 -25 4 -43 9 -40 12 8 22 -34 14 -62
-4 -16 -2 -22 8 -20 10 2 15 -9 17 -37 2 -22 8 -44 13 -49 5 -6 9 -25 9 -43 0
-21 6 -36 15 -39 9 -4 15 -19 15 -39 0 -19 5 -37 10 -40 6 -3 10 -21 10 -39 0
-18 7 -41 15 -52 8 -10 15 -34 15 -51 0 -23 5 -33 15 -33 11 0 15 -12 15 -44
0 -26 5 -46 12 -48 7 -3 11 -19 10 -41 -2 -26 2 -39 13 -43 10 -4 15 -19 15
-46 0 -23 4 -37 10 -33 6 4 10 -13 10 -44 0 -41 3 -49 15 -45 12 5 15 -2 15
-34 0 -23 5 -44 10 -47 6 -3 10 -24 10 -46 0 -28 4 -39 15 -39 11 0 15 -12 15
-45 0 -25 5 -45 10 -45 6 0 10 -15 10 -34 0 -19 7 -41 15 -50 8 -8 15 -28 15
-44 0 -17 6 -32 15 -36 10 -3 15 -19 15 -46 0 -22 5 -40 10 -40 6 0 10 -20 10
-45 0 -33 4 -45 15 -45 11 0 15 -11 15 -41 0 -24 4 -38 10 -34 6 4 10 -11 10
-38 0 -31 5 -47 15 -51 10 -3 15 -19 15 -46 0 -22 5 -40 10 -40 6 0 10 -18 10
-39 0 -25 5 -41 15 -45 9 -3 15 -19 15 -41 0 -19 5 -35 10 -35 6 0 10 -11 10
-25 0 -14 4 -25 9 -25 5 0 12 -11 15 -25 4 -14 13 -25 22 -25 8 0 12 -4 9 -10
-3 -5 1 -10 10 -10 8 0 18 -7 21 -15 4 -8 11 -15 18 -15 6 0 27 -13 46 -30 33
-28 40 -29 127 -30 82 0 93 2 103 20 6 11 20 20 30 20 11 0 20 5 20 10 0 6 4
10 9 10 14 0 69 58 73 78 2 9 10 16 16 15 7 -2 12 6 12 17 0 11 5 20 10 20 6
0 10 9 10 20 0 11 7 23 15 26 8 4 15 16 15 29 0 13 7 25 15 29 8 3 15 14 15
25 0 11 5 23 10 26 6 3 10 15 10 26 0 10 7 19 15 19 10 0 15 10 15 30 0 17 5
30 10 30 6 0 10 9 10 20 0 11 7 23 16 27 10 3 14 13 11 25 -3 11 0 22 9 25 8
3 14 16 14 29 0 18 4 22 16 17 14 -5 16 -1 12 20 -4 19 -1 27 8 27 8 0 14 11
14 25 0 14 4 25 9 25 5 0 14 12 20 27 6 16 15 35 19 43 23 39 32 61 32 75 0 8
7 15 16 15 11 0 15 6 11 20 -3 10 1 24 9 31 8 6 14 19 14 29 0 10 7 21 16 24
9 4 14 13 10 21 -3 9 1 18 9 21 8 4 15 19 15 35 0 20 4 27 14 23 10 -4 12 2 9
20 -4 19 -1 26 11 26 10 0 16 9 16 24 0 14 5 28 10 31 6 3 10 15 10 26 0 10 4
19 10 19 12 0 50 73 50 95 0 9 5 13 10 10 9 -6 14 7 11 31 -1 6 6 17 14 24 8
7 15 18 15 25 0 19 30 75 41 75 5 0 9 11 9 25 0 14 5 25 10 25 6 0 10 11 10
25 0 16 6 25 15 25 9 0 15 10 15 26 0 14 4 23 10 19 6 -4 10 7 10 25 0 18 4
29 10 25 6 -3 13 2 16 12 11 32 39 88 47 91 4 2 7 14 7 27 0 12 7 25 15 29 8
3 15 17 15 31 0 15 4 24 10 20 6 -4 10 5 10 20 0 14 7 28 15 31 8 4 15 17 15
30 0 13 5 24 10 24 6 0 10 11 10 25 0 15 5 24 13 22 7 -1 12 9 13 23 0 14 6
24 12 23 7 -2 12 9 12 27 0 21 5 30 16 30 11 0 15 6 11 20 -3 13 0 20 8 20 7
0 16 13 20 30 4 16 11 32 16 35 5 4 9 14 9 25 0 10 7 20 15 24 8 3 15 15 15
26 0 11 5 20 10 20 6 0 10 11 10 25 0 14 7 28 16 32 8 3 13 12 10 19 -3 7 1
20 9 28 8 8 15 22 15 30 0 9 7 16 16 16 12 0 15 6 10 25 -5 18 -2 25 9 25 10
0 15 10 15 31 0 17 4 28 10 24 6 -4 10 5 10 19 0 16 6 26 15 26 9 0 15 9 15
24 0 14 5 28 11 31 5 4 15 17 20 28 5 12 18 36 28 52 11 17 20 40 20 51 1 12
8 24 16 28 8 3 12 11 9 19 -3 8 2 20 11 27 8 7 15 21 15 31 0 10 5 21 11 25
13 8 54 -33 63 -64 4 -12 12 -22 17 -22 5 0 9 -7 9 -15 0 -8 5 -15 10 -15 6 0
10 -6 10 -13 0 -8 11 -27 25 -43 14 -16 25 -37 25 -46 0 -10 7 -18 15 -18 8 0
15 -7 15 -15 0 -8 5 -15 10 -15 6 0 10 -7 10 -15 0 -8 11 -25 25 -39 14 -14
25 -32 25 -40 0 -8 11 -26 24 -39 13 -13 27 -33 30 -45 4 -12 18 -30 32 -41
13 -10 24 -26 24 -34 0 -8 7 -20 15 -27 8 -7 12 -16 9 -21 -3 -5 0 -8 7 -7 7
2 15 -6 17 -17 2 -11 11 -24 18 -28 8 -5 12 -12 9 -18 -4 -5 1 -9 9 -9 10 0
16 -9 16 -26 0 -14 4 -23 10 -19 6 3 10 2 10 -4 0 -19 55 -101 67 -101 7 0 10
-6 7 -14 -3 -9 3 -20 15 -28 12 -7 21 -18 21 -25 0 -7 5 -13 10 -13 6 0 10
-11 10 -25 0 -16 6 -25 15 -25 8 0 15 -7 15 -15 0 -8 5 -15 10 -15 6 0 10 -6
10 -14 0 -7 6 -19 14 -26 8 -6 12 -18 9 -26 -4 -10 0 -12 11 -8 9 3 16 1 16
-6 0 -6 11 -26 25 -44 14 -18 25 -38 25 -44 0 -19 102 -132 119 -132 6 0 11
-7 11 -15 0 -10 10 -15 31 -15 17 0 28 -4 24 -10 -4 -7 482 -10 1449 -10 964
0 1456 3 1456 10 0 6 11 10 25 10 16 0 25 6 25 15 0 8 7 15 15 15 8 0 15 5 15
10 0 6 7 10 15 10 8 0 15 7 15 15 0 8 5 15 10 15 6 0 10 7 10 15 0 8 6 15 14
15 22 0 26 24 26 156 0 111 -2 126 -20 144 -11 11 -20 26 -20 33 0 16 -36 47
-55 47 -8 0 -15 7 -15 15 0 8 -9 15 -20 15 -11 0 -20 4 -20 9 0 6 -21 11 -47
13 -32 2 -47 7 -46 15 2 10 -260 13 -1288 13 -1019 0 -1293 3 -1302 13 -7 6
-21 29 -32 50 -11 20 -23 37 -27 37 -5 0 -8 5 -8 10 0 11 -9 24 -42 60 -9 10
-13 21 -10 25 4 4 -1 11 -11 16 -9 6 -17 17 -17 24 0 8 -4 15 -10 15 -5 0 -10
7 -10 15 0 8 -4 15 -10 15 -5 0 -17 17 -26 38 -10 20 -24 41 -31 45 -7 4 -13
15 -13 22 0 8 -4 15 -10 15 -5 0 -10 5 -10 11 0 6 -11 25 -25 43 -14 18 -25
36 -25 40 0 7 -12 23 -42 57 -10 10 -18 24 -18 29 0 6 -4 10 -10 10 -5 0 -10
7 -10 15 0 9 -7 18 -15 21 -8 4 -15 12 -15 20 0 8 -4 14 -10 14 -5 0 -10 11
-10 25 0 16 -6 25 -15 25 -8 0 -15 7 -15 15 0 8 -4 15 -10 15 -5 0 -10 9 -10
19 0 10 -7 22 -16 25 -8 3 -13 10 -10 14 3 5 -8 23 -23 40 -16 17 -27 33 -25
35 2 2 -5 12 -16 22 -11 10 -20 24 -20 32 0 8 -4 11 -10 8 -5 -3 -10 1 -10 10
0 9 -6 23 -12 30 -33 36 -39 47 -41 65 -1 10 -4 17 -8 14 -4 -2 -10 5 -14 16
-3 11 -11 20 -16 20 -5 0 -9 5 -9 11 0 6 -6 17 -12 24 -24 26 -33 40 -53 78
-11 20 -23 37 -27 37 -5 0 -8 7 -8 15 0 8 -5 15 -12 15 -6 0 -9 3 -5 6 3 3 -3
15 -14 27 -10 11 -19 26 -19 33 0 6 -7 14 -15 18 -8 3 -15 12 -15 21 0 8 -4
15 -10 15 -5 0 -10 6 -10 14 0 8 -7 16 -15 20 -8 3 -15 15 -15 26 0 12 -4 18
-10 15 -5 -3 -10 -1 -10 4 0 19 -79 101 -97 101 -7 0 -16 6 -20 14 -12 20
-157 44 -167 27 -4 -6 -24 -11 -46 -11 -24 0 -40 -5 -44 -15 -3 -8 -12 -15
-20 -15 -8 0 -23 -11 -34 -25 -11 -14 -25 -25 -31 -25 -6 0 -11 -7 -11 -15 0
-8 -4 -15 -10 -15 -5 0 -10 -7 -10 -16 0 -8 -4 -13 -9 -9 -5 3 -11 -7 -13 -22
-2 -16 -8 -27 -15 -26 -8 2 -13 -7 -13 -22 0 -14 -4 -25 -10 -25 -5 0 -10 -11
-10 -24 0 -13 -7 -26 -15 -30 -8 -3 -15 -16 -15 -30 0 -13 -7 -26 -15 -30 -8
-3 -15 -13 -15 -21 0 -9 -7 -23 -15 -32 -8 -8 -13 -18 -10 -23 3 -4 -2 -13
-10 -20 -8 -7 -15 -21 -15 -31 0 -11 -4 -19 -10 -19 -5 0 -10 -9 -10 -20 0
-11 -7 -23 -15 -26 -8 -4 -15 -17 -15 -30 0 -13 -4 -24 -10 -24 -5 0 -10 -11
-10 -25 0 -16 -6 -25 -15 -25 -9 0 -15 -9 -15 -25 0 -14 -4 -25 -10 -25 -5 0
-10 -11 -10 -24 0 -13 -7 -26 -15 -30 -8 -3 -15 -15 -15 -26 0 -11 -4 -20 -10
-20 -5 0 -10 -11 -10 -25 0 -14 -4 -25 -9 -25 -5 0 -14 -12 -20 -27 -6 -16
-20 -41 -30 -58 -11 -16 -20 -37 -20 -46 -1 -9 -8 -19 -16 -23 -8 -3 -15 -17
-15 -31 0 -14 -4 -25 -10 -25 -5 0 -10 -11 -10 -25 0 -16 -6 -25 -15 -25 -9 0
-15 -9 -15 -25 0 -14 -4 -25 -10 -25 -5 0 -10 -11 -10 -25 0 -14 -4 -25 -10
-25 -5 0 -10 -9 -10 -20 0 -11 -7 -23 -15 -26 -8 -4 -15 -17 -15 -30 0 -13 -4
-24 -10 -24 -5 0 -12 -11 -16 -24 -3 -14 -12 -27 -20 -30 -8 -3 -14 -14 -14
-25 0 -11 -4 -23 -10 -26 -5 -3 -10 -15 -10 -26 0 -10 -4 -19 -8 -19 -10 0
-42 -71 -42 -94 0 -9 -4 -15 -9 -11 -5 3 -11 -7 -13 -22 -2 -16 -8 -27 -15
-26 -8 2 -13 -8 -13 -28 0 -17 -4 -28 -10 -24 -6 4 -10 -5 -10 -19 0 -16 -6
-26 -15 -26 -9 0 -15 -9 -15 -25 0 -14 -4 -25 -10 -25 -5 0 -10 -10 -10 -23 0
-12 -9 -31 -21 -40 -11 -10 -18 -25 -15 -33 3 -8 -1 -14 -9 -14 -9 0 -15 -10
-15 -25 0 -14 -4 -25 -10 -25 -5 0 -10 -8 -10 -19 0 -10 -7 -24 -15 -31 -8 -7
-15 -21 -15 -31 0 -11 -4 -19 -10 -19 -5 0 -10 -11 -10 -25 0 -16 -6 -25 -15
-25 -9 0 -15 -9 -15 -25 0 -14 -4 -25 -10 -25 -5 0 -10 -11 -10 -24 0 -13 -7
-26 -15 -30 -8 -3 -15 -15 -15 -26 0 -11 -4 -20 -10 -20 -5 0 -10 -11 -10 -24
0 -13 -7 -26 -15 -30 -8 -3 -15 -14 -15 -25 0 -10 -7 -21 -15 -25 -8 -3 -15
-15 -15 -26 0 -11 -4 -20 -10 -20 -5 0 -10 -11 -10 -24 0 -14 -4 -27 -9 -31
-12 -7 -41 -64 -41 -80 0 -7 -7 -15 -15 -19 -8 -3 -15 -17 -15 -31 0 -14 -4
-25 -10 -25 -5 0 -10 -11 -10 -25 0 -14 -4 -25 -10 -25 -5 0 -12 -11 -16 -25
-3 -14 -10 -25 -15 -25 -5 0 -9 -11 -9 -24 0 -14 -4 -28 -10 -31 -5 -3 -10 3
-10 14 0 11 -7 26 -15 35 -8 8 -15 30 -15 49 0 22 -6 37 -15 41 -9 3 -15 18
-15 40 0 19 -4 38 -10 41 -5 3 -10 23 -10 45 0 26 -5 40 -16 44 -13 5 -15 15
-11 45 4 31 2 38 -9 34 -11 -4 -14 5 -14 34 0 21 -5 44 -11 50 -7 7 -12 29
-13 50 -1 25 -5 37 -13 36 -9 -2 -13 10 -13 37 0 22 -4 40 -10 40 -5 0 -10 18
-10 40 0 22 -6 42 -14 47 -7 4 -16 24 -19 43 -12 76 -26 125 -36 128 -6 2 -11
24 -11 48 0 30 -4 43 -12 41 -9 -1 -14 13 -16 40 -2 24 -7 43 -13 43 -5 0 -9
18 -9 40 0 29 -4 40 -15 40 -11 0 -15 11 -15 39 0 22 -4 43 -10 46 -5 3 -10
26 -10 51 0 32 -4 44 -15 44 -10 0 -15 11 -15 35 0 19 -4 35 -10 35 -5 0 -10
20 -10 44 0 30 -5 46 -15 50 -9 3 -15 18 -15 40 0 19 -4 38 -10 41 -5 3 -10
21 -10 38 0 18 -7 41 -15 51 -8 11 -15 35 -15 54 0 18 -4 31 -9 28 -11 -7 -21
18 -21 55 0 16 -4 29 -10 29 -5 0 -10 18 -10 39 0 25 -5 41 -15 45 -9 3 -15
18 -15 40 0 19 -4 38 -10 41 -5 3 -10 26 -10 51 0 30 -4 43 -12 42 -9 -2 -13
11 -13 38 0 29 -4 40 -12 37 -9 -4 -13 7 -13 33 0 22 -7 48 -16 59 -9 12 -12
30 -8 47 4 20 1 30 -10 34 -10 4 -16 18 -16 35 0 16 -4 37 -9 47 -6 9 -13 34
-16 55 -3 21 -10 35 -14 32 -12 -7 -21 20 -21 61 0 21 -4 33 -10 29 -6 -4 -10
10 -10 33 0 26 -5 42 -15 46 -9 3 -15 18 -15 40 0 19 -4 38 -10 41 -5 3 -10
26 -10 51 0 30 -4 43 -12 42 -9 -2 -12 10 -11 39 1 28 -2 42 -10 40 -7 -1 -13
14 -15 41 -2 23 -7 42 -13 42 -5 0 -9 18 -9 40 0 27 -5 43 -15 46 -9 4 -15 19
-15 39 0 19 -4 37 -10 40 -5 3 -10 21 -10 39 0 19 -7 39 -15 46 -8 7 -15 25
-15 40 0 37 -10 61 -21 54 -5 -3 -9 13 -9 35 0 23 -4 41 -10 41 -5 0 -10 20
-10 45 0 31 -4 44 -12 43 -9 -2 -14 13 -16 45 -2 26 -7 45 -13 42 -5 -4 -9 11
-9 33 0 26 -5 42 -15 46 -10 3 -15 19 -15 46 0 22 -4 40 -10 40 -5 0 -10 18
-10 40 0 27 -5 43 -15 46 -10 4 -15 20 -15 45 0 21 -4 39 -10 39 -5 0 -10 15
-10 34 0 18 -7 39 -15 46 -9 7 -15 29 -15 52 0 25 -5 41 -15 44 -10 4 -15 20
-15 45 0 21 -4 39 -10 39 -5 0 -10 18 -10 41 0 22 -4 38 -9 35 -12 -8 -21 18
-21 60 0 21 -4 33 -10 29 -6 -4 -10 10 -10 35 0 27 -5 43 -15 46 -9 4 -15 19
-15 39 0 19 -4 37 -10 40 -5 3 -10 26 -10 51 0 32 -4 44 -15 44 -11 0 -15 11
-15 40 0 22 -4 40 -10 40 -5 0 -10 11 -10 25 0 14 -4 25 -10 25 -5 0 -12 11
-16 24 -3 13 -15 26 -26 29 -11 3 -17 10 -13 16 3 6 -1 11 -9 11 -9 0 -16 4
-16 9 0 5 -9 11 -20 13 -12 2 -20 7 -20 13 2 17 -33 24 -126 24 -108 1 -154
-6 -154 -25 0 -8 -9 -14 -20 -14 -11 0 -20 -4 -20 -10 0 -5 -6 -10 -12 -10 -7
0 -23 -18 -36 -40 -13 -22 -27 -38 -32 -35 -6 4 -10 -8 -10 -24 0 -17 -4 -31
-10 -31 -5 0 -12 -27 -16 -60 -3 -33 -10 -58 -14 -55 -4 3 -11 -27 -14 -65 -4
-38 -11 -72 -17 -75 -5 -4 -9 -33 -9 -66 0 -33 -4 -59 -10 -59 -5 0 -10 -25
-10 -55 0 -40 -4 -57 -15 -61 -11 -5 -15 -22 -15 -68 0 -34 -4 -66 -9 -72 -6
-5 -11 -34 -13 -64 -2 -37 -7 -54 -15 -52 -9 1 -13 -16 -13 -63 0 -36 -4 -65
-10 -65 -5 0 -10 -28 -12 -62 -2 -44 -7 -62 -15 -60 -10 1 -13 -17 -13 -69 0
-44 -4 -68 -10 -64 -6 4 -10 -16 -10 -54 0 -42 -4 -62 -14 -68 -10 -5 -16 -29
-17 -71 -2 -44 -6 -62 -16 -62 -9 0 -13 -17 -13 -64 0 -36 -4 -68 -10 -71 -5
-3 -10 -31 -10 -61 0 -41 -4 -54 -15 -54 -12 0 -15 -14 -15 -64 0 -36 -4 -68
-10 -71 -5 -3 -10 -30 -10 -60 0 -51 -12 -79 -24 -53 -2 7 -4 -21 -4 -62 1
-47 -3 -75 -11 -78 -6 -2 -11 -27 -11 -62 0 -54 -13 -87 -22 -58 -3 7 -3 -14
0 -48 3 -46 0 -64 -12 -76 -11 -11 -16 -34 -16 -72 0 -30 -4 -58 -10 -61 -5
-3 -10 -28 -10 -54 0 -34 -6 -55 -20 -71 -15 -17 -20 -37 -20 -76 0 -29 -4
-56 -10 -59 -5 -3 -10 -31 -10 -61 0 -40 -4 -56 -15 -60 -12 -5 -15 -20 -14
-61 1 -30 -3 -59 -9 -65 -7 -7 -12 -38 -12 -70 0 -39 -4 -60 -13 -64 -8 -3
-11 -17 -9 -39 5 -43 -5 -88 -18 -80 -6 4 -10 -21 -10 -64 0 -41 -4 -71 -10
-71 -5 0 -10 -25 -10 -55 0 -40 -4 -57 -15 -61 -11 -5 -15 -22 -15 -70 0 -36
-4 -64 -10 -64 -5 0 -10 -25 -10 -55 0 -37 -5 -57 -14 -62 -10 -5 -16 -28 -17
-70 -1 -41 -7 -64 -16 -67 -9 -4 -13 -25 -13 -66 0 -33 -4 -60 -9 -60 -5 0
-11 -28 -13 -62 -3 -35 -10 -64 -16 -66 -7 -2 -12 -26 -12 -61 0 -31 -4 -61
-9 -67 -6 -5 -11 -34 -13 -64 -2 -37 -7 -54 -15 -52 -9 1 -13 -16 -13 -62 0
-36 -4 -68 -10 -71 -5 -3 -10 -33 -10 -65 0 -55 -12 -85 -23 -58 -3 7 -6 -20
-6 -59 -1 -40 -5 -73 -11 -73 -5 0 -10 -28 -12 -62 -2 -44 -7 -62 -15 -60 -9
1 -13 -16 -13 -62 0 -40 -4 -66 -12 -68 -6 -2 -13 -31 -16 -66 -2 -34 -8 -65
-13 -68 -5 -3 -9 -29 -9 -59 0 -38 -4 -54 -15 -59 -11 -4 -15 -22 -15 -71 0
-37 -4 -65 -10 -65 -5 0 -10 -25 -10 -55 0 -40 -4 -57 -15 -61 -11 -5 -15 -22
-15 -70 0 -35 -4 -64 -10 -64 -5 0 -10 -28 -12 -62 -2 -46 -7 -62 -16 -60 -10
2 -13 -10 -12 -45 4 -71 1 -95 -10 -88 -5 3 -10 -21 -12 -57 -2 -42 -7 -62
-15 -61 -8 2 -10 -8 -6 -32 7 -42 -5 -108 -18 -100 -5 4 -9 -18 -9 -52 -1 -35
-6 -66 -15 -77 -8 -11 -15 -29 -16 -40 -1 -18 -2 -18 -9 4 -4 14 -8 76 -9 138
-1 73 -5 111 -11 107 -11 -7 -11 0 -11 150 0 58 -3 92 -8 81 -7 -18 -8 -18
-14 -2 -4 10 -7 65 -7 122 0 63 -4 104 -10 104 -6 0 -10 48 -10 123 0 70 -4
116 -9 109 -15 -24 -21 13 -21 119 0 59 -4 99 -10 99 -6 0 -10 47 -10 121 0
67 -4 118 -9 115 -14 -9 -21 33 -21 144 0 72 -3 100 -10 90 -7 -10 -10 17 -10
85 0 69 -5 109 -15 129 -10 20 -15 59 -15 131 0 82 -3 104 -15 109 -12 4 -15
26 -15 111 0 63 -4 105 -10 105 -6 0 -10 48 -10 123 0 70 -4 116 -9 109 -13
-22 -21 22 -21 126 0 54 -4 92 -10 92 -6 0 -10 45 -10 115 0 87 -3 114 -12
113 -8 -2 -14 11 -16 35 -2 20 -7 37 -13 37 -5 0 -9 7 -9 15 0 18 -77 95 -110
112 -14 7 -34 14 -45 16 -11 2 -19 9 -17 15 1 9 -23 12 -83 12 -63 0 -84 -3
-83 -12 2 -8 -10 -14 -29 -16 -18 -2 -33 -7 -33 -13 0 -5 -11 -9 -24 -9 -13 0
-26 -7 -30 -15 -3 -8 -15 -15 -26 -15 -11 0 -20 -4 -20 -10 0 -5 -11 -10 -24
-10 -13 0 -27 -7 -30 -16 -4 -11 -14 -15 -30 -12 -17 4 -23 1 -19 -9 3 -9 -3
-13 -21 -13 -14 0 -26 -4 -26 -10 0 -5 -11 -10 -24 -10 -13 0 -26 -7 -30 -15
-3 -8 -15 -15 -26 -15 -11 0 -20 -4 -20 -10 0 -5 -9 -10 -20 -10 -10 0 -23 -6
-27 -13 -10 -17 -70 -47 -95 -47 -11 0 -17 -4 -13 -9 7 -12 -31 -25 -45 -16
-6 4 -9 1 -8 -7 2 -8 -8 -14 -25 -16 -15 -2 -25 -8 -22 -13 6 -9 -7 -13 -37
-10 -10 1 -18 -4 -18 -13 0 -10 -9 -16 -25 -16 -14 0 -25 -4 -25 -10 0 -5 -11
-10 -25 -10 -16 0 -25 -6 -25 -15 0 -9 -9 -15 -25 -15 -14 0 -25 -4 -25 -10 0
-5 -8 -10 -19 -10 -10 0 -24 -7 -31 -15 -7 -8 -23 -15 -36 -15 -14 0 -23 -5
-22 -12 2 -8 -9 -14 -25 -16 -15 -2 -25 -8 -22 -13 4 -5 -252 -9 -664 -9
l-671 0 -5 23 c-2 12 -16 76 -31 142 -161 741 -641 1344 -1294 1630 -320 140
-721 213 -1038 189 -68 -5 -122 -5 -122 0 0 4 -38 292 -85 640 -47 347 -104
764 -125 926 l-40 295 33 31 c17 17 124 116 237 220 287 263 669 648 779 783
493 608 761 1215 876 1981 25 166 53 427 76 710 35 433 20 899 -42 1310 -115
764 -354 1384 -677 1756 -92 105 -135 128 -252 131 -62 2 -98 -2 -135 -16z
m316 -1595 c214 -46 346 -213 388 -493 23 -154 9 -411 -35 -628 -58 -289 -232
-747 -396 -1048 -110 -200 -317 -489 -521 -727 -268 -313 -469 -512 -847 -836
-14 -12 -16 -9 -18 19 -2 17 -14 113 -27 212 -56 406 -60 448 -60 760 0 321
10 434 61 695 84 425 268 935 466 1289 249 446 507 699 769 756 83 18 139 18
220 1z m-1486 -5772 c27 -203 97 -724 156 -1168 21 -165 36 -303 32 -306 -5
-4 -51 -21 -103 -39 -358 -122 -727 -384 -978 -696 -155 -194 -590 -575 -741
-650 -39 -20 -160 -76 -366 -170 -245 -112 -490 -205 -579 -220 l-39 -6 7 43
c31 197 128 526 216 733 160 376 383 723 715 1111 136 160 489 519 695 709
222 204 952 847 956 842 2 -2 15 -84 29 -183z m993 -2690 c354 -79 685 -278
911 -547 188 -225 306 -470 360 -747 77 -404 28 -889 -128 -1250 -115 -266
-319 -513 -551 -669 -129 -86 -402 -222 -417 -207 -5 5 -12 55 -123 876 -102
759 -192 1423 -260 1920 -32 239 -64 473 -70 520 -6 47 -13 98 -16 114 l-6 29
92 -6 c51 -4 144 -19 208 -33z m-634 -11 c3 -16 17 -113 30 -218 28 -206 125
-941 237 -1775 38 -289 96 -725 129 -970 33 -245 62 -468 66 -496 7 -61 19
-55 -151 -83 -228 -38 -335 -46 -645 -46 -331 0 -366 4 -611 65 -554 140
-1121 498 -1471 930 -339 419 -541 914 -584 1427 l-7 82 34 5 c19 3 79 13 134
22 225 37 871 233 1145 348 30 13 80 34 110 46 63 26 238 90 260 95 8 2 15 4
15 5 0 1 7 3 15 5 73 18 526 238 670 325 214 130 354 195 505 235 114 30 112
30 119 -2z"/>
<path d="M1299 7513 c-1 -16 -2 -44 -3 -63 -1 -19 0 -39 3 -45 9 -17 8 -45 -1
-45 -5 0 -6 -5 -3 -10 12 -19 16 -62 5 -55 -6 4 -7 -2 -2 -17 9 -29 9 -59 -1
-76 -5 -6 -4 -12 0 -12 5 0 10 -11 11 -26 1 -14 -2 -23 -7 -19 -6 3 -9 -4 -8
-15 1 -11 4 -20 8 -20 3 0 6 -18 6 -40 0 -22 -5 -40 -11 -40 -6 0 -5 -4 3 -9
8 -5 11 -16 8 -25 -6 -14 6 -16 93 -16 88 0 100 2 100 18 1 39 2 508 1 525 -1
15 -13 17 -101 17 l-100 0 -1 -27z"/>
<path d="M1530 7518 c-1 -38 -1 -481 -1 -510 1 -21 6 -28 21 -28 18 0 20 7 21
58 1 71 1 472 0 490 -1 6 -10 12 -21 12 -14 0 -20 -7 -20 -22z"/>
</g>
</svg>
