
<?xml version="1.0" standalone="no"?>
<!DOCTYPE svg PUBLIC "-//W3C//DTD SVG 1.1//EN"
"http://www.w3.org/Graphics/SVG/1.1/DTD/svg11.dtd">

<svg width="769" height="467" view_box="0 0 769 467"
xmlns="http://www.w3.org/2000/svg"
xmlns:link="http://www.w3.org/1999/xlink">\n\n<desc>Généré par Mocodo 2.3.7 le Tue, 13 Nov 2018 07:03:11</desc>

<rect id="frame" x="0" y="0" width="769" height="467" fill="#f7f7f7" stroke="none" stroke-width="0"/>

<!-- Association PASSER -->
<line x1="63" y1="128" x2="201" y2="272" stroke="#9970ab" stroke-width="2"/>
<text x="122" y="183.206110312" fill="#1b7837" font-family="Verdana" font-size="12">0,N</text>
<line x1="363" y1="272" x2="201" y2="272" stroke="#9970ab" stroke-width="2"/>
<text x="295" y="289.0" fill="#1b7837" font-family="Verdana" font-size="12">1,1</text>
<g id="association-PASSER">
	<path d="M 219 247 a 14 14 90 0 1 14 14 V 272 h -64 V 261 a 14 14 90 0 1 14 -14" fill="#c2a5cf" stroke="#c2a5cf" stroke-width="0"/>
	<path d="M 233 272.0 v 11 a 14 14 90 0 1 -14 14 H 183 a 14 14 90 0 1 -14 -14 V 272.0 H 64" fill="#e7d4e8" stroke="#e7d4e8" stroke-width="0"/>
	<rect x="169" y="247" width="64" height="50" fill="none" rx="14" stroke="#9970ab" stroke-width="2"/>
	<line x1="169" y1="272" x2="233" y2="272" stroke="#9970ab" stroke-width="1"/>
	<text x="176" y="264.7" fill="#000000" font-family="Verdana" font-size="12">PASSER</text>
</g>

<!-- Association ENREGISTRER -->
<line x1="63" y1="128" x2="201" y2="128" stroke="#9970ab" stroke-width="2"/>
<text x="122" y="120.0" fill="#1b7837" font-family="Verdana" font-size="12">0,N</text>
<line x1="500" y1="128" x2="201" y2="128" stroke="#9970ab" stroke-width="2"/>
<text x="429" y="145.0" fill="#1b7837" font-family="Verdana" font-size="12">1,N</text>
<g id="association-ENREGISTRER">
	<path d="M 239 103 a 14 14 90 0 1 14 14 V 128 h -104 V 117 a 14 14 90 0 1 14 -14" fill="#c2a5cf" stroke="#c2a5cf" stroke-width="0"/>
	<path d="M 253 128.0 v 11 a 14 14 90 0 1 -14 14 H 163 a 14 14 90 0 1 -14 -14 V 128.0 H 104" fill="#e7d4e8" stroke="#e7d4e8" stroke-width="0"/>
	<rect x="149" y="103" width="104" height="50" fill="none" rx="14" stroke="#9970ab" stroke-width="2"/>
	<line x1="149" y1="128" x2="253" y2="128" stroke="#9970ab" stroke-width="1"/>
	<text x="157" y="120.7" fill="#000000" font-family="Verdana" font-size="12">ENREGISTRER</text>
	<text x="156" y="145.8" fill="#000000" font-family="Verdana" font-size="12">nbProduit_pan</text>
</g>

<!-- Association CLASSER -->
<line x1="500" y1="128" x2="612" y2="128" stroke="#9970ab" stroke-width="2"/>
<text x="549" y="145.0" fill="#1b7837" font-family="Verdana" font-size="12">1,1</text>
<line x1="720" y1="128" x2="612" y2="128" stroke="#9970ab" stroke-width="2"/>
<text x="653" y="145.0" fill="#1b7837" font-family="Verdana" font-size="12">0,N</text>
<g id="association-CLASSER">
	<path d="M 634 103 a 14 14 90 0 1 14 14 V 128 h -72 V 117 a 14 14 90 0 1 14 -14" fill="#c2a5cf" stroke="#c2a5cf" stroke-width="0"/>
	<path d="M 648 128.0 v 11 a 14 14 90 0 1 -14 14 H 590 a 14 14 90 0 1 -14 -14 V 128.0 H 72" fill="#e7d4e8" stroke="#e7d4e8" stroke-width="0"/>
	<rect x="576" y="103" width="72" height="50" fill="none" rx="14" stroke="#9970ab" stroke-width="2"/>
	<line x1="576" y1="128" x2="648" y2="128" stroke="#9970ab" stroke-width="1"/>
	<text x="583" y="120.7" fill="#000000" font-family="Verdana" font-size="12">CLASSER</text>
</g>

<!-- Association DECLENCHER -->
<line x1="363" y1="272" x2="363" y2="390" stroke="#9970ab" stroke-width="2"/>
<text x="368.0" y="331" fill="#1b7837" font-family="Verdana" font-size="12">0,1</text>
<line x1="500" y1="390" x2="363" y2="390" stroke="#9970ab" stroke-width="2"/>
<text x="430" y="407.0" fill="#1b7837" font-family="Verdana" font-size="12">1,1</text>
<g id="association-DECLENCHER">
	<path d="M 398 365 a 14 14 90 0 1 14 14 V 390 h -98 V 379 a 14 14 90 0 1 14 -14" fill="#c2a5cf" stroke="#c2a5cf" stroke-width="0"/>
	<path d="M 412 390.0 v 11 a 14 14 90 0 1 -14 14 H 328 a 14 14 90 0 1 -14 -14 V 390.0 H 98" fill="#e7d4e8" stroke="#e7d4e8" stroke-width="0"/>
	<rect x="314" y="365" width="98" height="50" fill="none" rx="14" stroke="#9970ab" stroke-width="2"/>
	<line x1="314" y1="390" x2="412" y2="390" stroke="#9970ab" stroke-width="1"/>
	<text x="321" y="382.7" fill="#000000" font-family="Verdana" font-size="12">DECLENCHER</text>
</g>

<!-- Association LIGNECOMMANDE -->
<line x1="363" y1="272" x2="500" y2="272" stroke="#9970ab" stroke-width="2"/>
<text x="410" y="289.0" fill="#1b7837" font-family="Verdana" font-size="12">0,N</text>
<line x1="500" y1="128" x2="500" y2="272" stroke="#9970ab" stroke-width="2"/>
<text x="505.0" y="196" fill="#1b7837" font-family="Verdana" font-size="12">1,N</text>
<g id="association-LIGNECOMMANDE">
	<path d="M 549 247 a 14 14 90 0 1 14 14 V 272 h -126 V 261 a 14 14 90 0 1 14 -14" fill="#c2a5cf" stroke="#c2a5cf" stroke-width="0"/>
	<path d="M 563 272.0 v 11 a 14 14 90 0 1 -14 14 H 451 a 14 14 90 0 1 -14 -14 V 272.0 H 126" fill="#e7d4e8" stroke="#e7d4e8" stroke-width="0"/>
	<rect x="437" y="247" width="126" height="50" fill="none" rx="14" stroke="#9970ab" stroke-width="2"/>
	<line x1="437" y1="272" x2="563" y2="272" stroke="#9970ab" stroke-width="1"/>
	<text x="444" y="264.7" fill="#000000" font-family="Verdana" font-size="12">LIGNECOMMANDE</text>
	<text x="444" y="289.8" fill="#000000" font-family="Verdana" font-size="12">nbProduit</text>
</g>

<!-- Entity PRODUIT -->
<g id="entity-PRODUIT">
	<g id="frame-PRODUIT">
		<rect x="456" y="77" width="88" height="25" fill="#a6dba0" stroke="#a6dba0" stroke-width="0"/>
		<rect x="456" y="102.0" width="88" height="77" fill="#d9f0d3" stroke="#d9f0d3" stroke-width="0"/>
		<rect x="456" y="77" width="88" height="102" fill="none" stroke="#5aae61" stroke-width="2"/>
		<line x1="456" y1="102" x2="544" y2="102" stroke="#5aae61" stroke-width="1"/>
	</g>
	<text x="471" y="94.7" fill="#000000" font-family="Verdana" font-size="12">PRODUIT</text>
	<text x="461" y="119.7" fill="#000000" font-family="Verdana" font-size="12">num_prd</text>
	<line x1="461" y1="122" x2="517" y2="122" stroke="#000000" stroke-width="1"/>
	<text x="461" y="136.8" fill="#000000" font-family="Verdana" font-size="12">libelle_prd</text>
	<text x="461" y="153.8" fill="#000000" font-family="Verdana" font-size="12">prixHT_prd</text>
	<text x="461" y="170.8" fill="#000000" font-family="Verdana" font-size="12">nbStock_prd</text>
</g>

<!-- Entity UTILISATEUR -->
<g id="entity-UTILISATEUR">
	<g id="frame-UTILISATEUR">
		<rect x="9" y="9" width="108" height="25" fill="#a6dba0" stroke="#a6dba0" stroke-width="0"/>
		<rect x="9" y="34.0" width="108" height="213" fill="#d9f0d3" stroke="#d9f0d3" stroke-width="0"/>
		<rect x="9" y="9" width="108" height="238" fill="none" stroke="#5aae61" stroke-width="2"/>
		<line x1="9" y1="34" x2="117" y2="34" stroke="#5aae61" stroke-width="1"/>
	</g>
	<text x="21" y="26.7" fill="#000000" font-family="Verdana" font-size="12">UTILISATEUR</text>
	<text x="14" y="51.7" fill="#000000" font-family="Verdana" font-size="12">num_cli</text>
	<line x1="14" y1="54" x2="62" y2="54" stroke="#000000" stroke-width="1"/>
	<text x="14" y="68.7" fill="#000000" font-family="Verdana" font-size="12">email_cli</text>
	<text x="14" y="85.7" fill="#000000" font-family="Verdana" font-size="12">mdp_cli</text>
	<text x="14" y="102.7" fill="#000000" font-family="Verdana" font-size="12">nom_cli</text>
	<text x="14" y="119.7" fill="#000000" font-family="Verdana" font-size="12">prenom_cli</text>
	<text x="14" y="136.8" fill="#000000" font-family="Verdana" font-size="12">ddn_cli</text>
	<text x="14" y="153.8" fill="#000000" font-family="Verdana" font-size="12">sexe_cli</text>
	<text x="14" y="170.8" fill="#000000" font-family="Verdana" font-size="12">adresse1_cli</text>
	<text x="14" y="187.8" fill="#000000" font-family="Verdana" font-size="12">adresse2_cli</text>
	<text x="14" y="204.8" fill="#000000" font-family="Verdana" font-size="12">cp_cli</text>
	<text x="14" y="221.8" fill="#000000" font-family="Verdana" font-size="12">ville_cli</text>
	<text x="14" y="238.8" fill="#000000" font-family="Verdana" font-size="12">dtInscription_cli</text>
</g>

<!-- Entity COMMANDE -->
<g id="entity-COMMANDE">
	<g id="frame-COMMANDE">
		<rect x="321" y="230" width="84" height="25" fill="#a6dba0" stroke="#a6dba0" stroke-width="0"/>
		<rect x="321" y="255.0" width="84" height="59" fill="#d9f0d3" stroke="#d9f0d3" stroke-width="0"/>
		<rect x="321" y="230" width="84" height="84" fill="none" stroke="#5aae61" stroke-width="2"/>
		<line x1="321" y1="255" x2="405" y2="255" stroke="#5aae61" stroke-width="1"/>
	</g>
	<text x="326" y="247.7" fill="#000000" font-family="Verdana" font-size="12">COMMANDE</text>
	<text x="326" y="272.8" fill="#000000" font-family="Verdana" font-size="12">num_cde</text>
	<line x1="326" y1="275" x2="382" y2="275" stroke="#000000" stroke-width="1"/>
	<text x="326" y="289.8" fill="#000000" font-family="Verdana" font-size="12">date_cde</text>
	<text x="326" y="306.8" fill="#000000" font-family="Verdana" font-size="12">prixHT_cde</text>
</g>

<!-- Entity LIVRAISON -->
<g id="entity-LIVRAISON">
	<g id="frame-LIVRAISON">
		<rect x="456" y="322" width="88" height="25" fill="#a6dba0" stroke="#a6dba0" stroke-width="0"/>
		<rect x="456" y="347.0" width="88" height="111" fill="#d9f0d3" stroke="#d9f0d3" stroke-width="0"/>
		<rect x="456" y="322" width="88" height="136" fill="none" stroke="#5aae61" stroke-width="2"/>
		<line x1="456" y1="347" x2="544" y2="347" stroke="#5aae61" stroke-width="1"/>
	</g>
	<text x="465" y="339.7" fill="#000000" font-family="Verdana" font-size="12">LIVRAISON</text>
	<text x="461" y="364.7" fill="#000000" font-family="Verdana" font-size="12">num_liv</text>
	<line x1="461" y1="367" x2="510" y2="367" stroke="#000000" stroke-width="1"/>
	<text x="461" y="381.7" fill="#000000" font-family="Verdana" font-size="12">date_liv</text>
	<text x="461" y="398.8" fill="#000000" font-family="Verdana" font-size="12">adresse1_liv</text>
	<text x="461" y="415.8" fill="#000000" font-family="Verdana" font-size="12">adresse2_liv</text>
	<text x="461" y="432.8" fill="#000000" font-family="Verdana" font-size="12">cp_liv</text>
	<text x="461" y="449.8" fill="#000000" font-family="Verdana" font-size="12">ville_liv</text>
</g>

<!-- Entity COMMANDEHISTORIQUE -->
<g id="entity-COMMANDEHISTORIQUE">
	<g id="frame-COMMANDEHISTORIQUE">
		<rect x="120" y="348" width="162" height="25" fill="#a6dba0" stroke="#a6dba0" stroke-width="0"/>
		<rect x="120" y="373.0" width="162" height="59" fill="#d9f0d3" stroke="#d9f0d3" stroke-width="0"/>
		<rect x="120" y="348" width="162" height="84" fill="none" stroke="#5aae61" stroke-width="2"/>
		<line x1="120" y1="373" x2="282" y2="373" stroke="#5aae61" stroke-width="1"/>
	</g>
	<text x="125" y="365.7" fill="#000000" font-family="Verdana" font-size="12">COMMANDEHISTORIQUE</text>
	<text x="125" y="390.8" fill="#000000" font-family="Verdana" font-size="12">num_cde</text>
	<line x1="125" y1="393" x2="181" y2="393" stroke="#000000" stroke-width="1"/>
	<text x="125" y="407.8" fill="#000000" font-family="Verdana" font-size="12">date_cde</text>
	<text x="125" y="424.8" fill="#000000" font-family="Verdana" font-size="12">prixHT_cde</text>
</g>

<!-- Entity TYPE -->
<g id="entity-TYPE">
	<g id="frame-TYPE">
		<rect x="680" y="94" width="80" height="25" fill="#a6dba0" stroke="#a6dba0" stroke-width="0"/>
		<rect x="680" y="119.0" width="80" height="43" fill="#d9f0d3" stroke="#d9f0d3" stroke-width="0"/>
		<rect x="680" y="94" width="80" height="68" fill="none" stroke="#5aae61" stroke-width="2"/>
		<line x1="680" y1="119" x2="760" y2="119" stroke="#5aae61" stroke-width="1"/>
	</g>
	<text x="704" y="111.7" fill="#000000" font-family="Verdana" font-size="12">TYPE</text>
	<text x="685" y="136.8" fill="#000000" font-family="Verdana" font-size="12">num_type</text>
	<line x1="685" y1="139" x2="747" y2="139" stroke="#000000" stroke-width="1"/>
	<text x="685" y="153.8" fill="#000000" font-family="Verdana" font-size="12">libelle_type</text>
</g>
</svg>
